HIERARCHY
ROOT Hips
{
	OFFSET -351.999878 -572.954773 89.312325
	CHANNELS 6 Xposition Yposition Zposition Zrotation Yrotation Xrotation
	JOINT Spine
	{
		OFFSET 0.000000 2.080078 8.814247
		CHANNELS 6 Xposition Yposition Zposition Zrotation Yrotation Xrotation
		JOINT Spine1
		{
			OFFSET 0.000000 0.000000 8.844139
			CHANNELS 6 Xposition Yposition Zposition Zrotation Yrotation Xrotation
			JOINT Spine2
			{
				OFFSET 0.000000 0.000000 11.682266
				CHANNELS 6 Xposition Yposition Zposition Zrotation Yrotation Xrotation
				JOINT Spine3
				{
					OFFSET 0.000000 0.000000 11.746696
					CHANNELS 6 Xposition Yposition Zposition Zrotation Yrotation Xrotation
					JOINT Neck
					{
						OFFSET 0.000000 0.000000 17.658264
						CHANNELS 6 Xposition Yposition Zposition Zrotation Yrotation Xrotation
						JOINT Neck1
						{
							OFFSET 0.000000 0.000000 5.101517
							CHANNELS 6 Xposition Yposition Zposition Zrotation Yrotation Xrotation
							JOINT Head
							{
								OFFSET 0.000000 0.000000 5.101517
								CHANNELS 6 Xposition Yposition Zposition Zrotation Yrotation Xrotation
								JOINT HeadEnd
								{
									OFFSET 0.000000 0.000000 11.655090
									CHANNELS 6 Xposition Yposition Zposition Zrotation Yrotation Xrotation
									End Site
									{
										OFFSET 0.000000 0.000000 0.100006
									}
								}
							}
						}
					}
					JOINT RightShoulder
					{
						OFFSET -2.625397 0.000000 11.175217
						CHANNELS 6 Xposition Yposition Zposition Zrotation Yrotation Xrotation
						JOINT RightArm
						{
							OFFSET 0.000000 0.000000 10.434708
							CHANNELS 6 Xposition Yposition Zposition Zrotation Yrotation Xrotation
							JOINT RightForeArm
							{
								OFFSET 0.000000 0.000000 29.628418
								CHANNELS 6 Xposition Yposition Zposition Zrotation Yrotation Xrotation
								JOINT RightHand
								{
									OFFSET 0.000000 0.000000 22.857605
									CHANNELS 6 Xposition Yposition Zposition Zrotation Yrotation Xrotation
									JOINT RightHandThumb1
									{
										OFFSET -2.867310 -2.944275 3.959564
										CHANNELS 6 Xposition Yposition Zposition Zrotation Yrotation Xrotation
										JOINT RightHandThumb2
										{
											OFFSET 0.000000 0.000000 3.350403
											CHANNELS 6 Xposition Yposition Zposition Zrotation Yrotation Xrotation
											JOINT RightHandThumb3
											{
												OFFSET 0.000000 0.000000 3.756516
												CHANNELS 6 Xposition Yposition Zposition Zrotation Yrotation Xrotation
												JOINT RightHandThumb4
												{
													OFFSET 0.000000 0.000000 3.147339
													CHANNELS 6 Xposition Yposition Zposition Zrotation Yrotation Xrotation
													End Site
													{
														OFFSET 0.000000 0.000000 0.100006
													}
												}
											}
										}
									}
									JOINT RightHandIndex1
									{
										OFFSET -0.086761 -2.345276 10.030899
										CHANNELS 6 Xposition Yposition Zposition Zrotation Yrotation Xrotation
										JOINT RightHandIndex2
										{
											OFFSET 0.000000 0.000000 4.061096
											CHANNELS 6 Xposition Yposition Zposition Zrotation Yrotation Xrotation
											JOINT RightHandIndex3
											{
												OFFSET 0.000000 0.000000 3.248871
												CHANNELS 6 Xposition Yposition Zposition Zrotation Yrotation Xrotation
												JOINT RightHandIndex4
												{
													OFFSET 0.000000 0.000000 2.639709
													CHANNELS 6 Xposition Yposition Zposition Zrotation Yrotation Xrotation
													End Site
													{
														OFFSET 0.000000 0.000000 0.100006
													}
												}
											}
										}
									}
									JOINT RightHandMiddle1
									{
										OFFSET 0.104095 -0.006775 9.502945
										CHANNELS 6 Xposition Yposition Zposition Zrotation Yrotation Xrotation
										JOINT RightHandMiddle2
										{
											OFFSET 0.000000 0.000000 4.568726
											CHANNELS 6 Xposition Yposition Zposition Zrotation Yrotation Xrotation
											JOINT RightHandMiddle3
											{
												OFFSET 0.000000 0.000000 3.654984
												CHANNELS 6 Xposition Yposition Zposition Zrotation Yrotation Xrotation
												JOINT RightHandMiddle4
												{
													OFFSET 0.000000 0.000000 2.741241
													CHANNELS 6 Xposition Yposition Zposition Zrotation Yrotation Xrotation
													End Site
													{
														OFFSET 0.000000 0.000000 0.100006
													}
												}
											}
										}
									}
									JOINT RightHandRing1
									{
										OFFSET 0.086761 2.267456 8.921707
										CHANNELS 6 Xposition Yposition Zposition Zrotation Yrotation Xrotation
										JOINT RightHandRing2
										{
											OFFSET 0.000000 0.000000 4.061096
											CHANNELS 6 Xposition Yposition Zposition Zrotation Yrotation Xrotation
											JOINT RightHandRing3
											{
												OFFSET 0.000000 0.000000 3.654984
												CHANNELS 6 Xposition Yposition Zposition Zrotation Yrotation Xrotation
												JOINT RightHandRing4
												{
													OFFSET 0.000000 0.000000 2.741241
													CHANNELS 6 Xposition Yposition Zposition Zrotation Yrotation Xrotation
													End Site
													{
														OFFSET 0.000000 0.000000 0.100006
													}
												}
											}
										}
									}
									JOINT RightHandPinky1
									{
										OFFSET -0.173492 4.467224 7.976990
										CHANNELS 6 Xposition Yposition Zposition Zrotation Yrotation Xrotation
										JOINT RightHandPinky2
										{
											OFFSET 0.000000 0.000000 3.350403
											CHANNELS 6 Xposition Yposition Zposition Zrotation Yrotation Xrotation
											JOINT RightHandPinky3
											{
												OFFSET 0.000000 0.000000 2.842758
												CHANNELS 6 Xposition Yposition Zposition Zrotation Yrotation Xrotation
												JOINT RightHandPinky4
												{
													OFFSET 0.000000 0.000000 2.639709
													CHANNELS 6 Xposition Yposition Zposition Zrotation Yrotation Xrotation
													End Site
													{
														OFFSET 0.000000 0.000000 0.100006
													}
												}
											}
										}
									}
									JOINT RightForeArmEnd
									{
										OFFSET 0.000000 0.000000 0.000000
										CHANNELS 6 Xposition Yposition Zposition Zrotation Yrotation Xrotation
										End Site
										{
											OFFSET 0.000000 0.000000 0.100006
										}
									}
								}
								JOINT RightArmEnd
								{
									OFFSET 0.000000 0.000000 0.000000
									CHANNELS 6 Xposition Yposition Zposition Zrotation Yrotation Xrotation
									End Site
									{
										OFFSET 0.000000 0.000000 0.100006
									}
								}
							}
						}
					}
					JOINT LeftShoulder
					{
						OFFSET 2.625397 0.000000 11.175217
						CHANNELS 6 Xposition Yposition Zposition Zrotation Yrotation Xrotation
						JOINT LeftArm
						{
							OFFSET 0.000000 0.000000 10.813629
							CHANNELS 6 Xposition Yposition Zposition Zrotation Yrotation Xrotation
							JOINT LeftForeArm
							{
								OFFSET 0.000000 0.000000 28.724777
								CHANNELS 6 Xposition Yposition Zposition Zrotation Yrotation Xrotation
								JOINT LeftHand
								{
									OFFSET 0.644379 0.328857 25.716171
									CHANNELS 6 Xposition Yposition Zposition Zrotation Yrotation Xrotation
									JOINT LeftHandThumb1
									{
										OFFSET 2.867310 -2.944275 3.959564
										CHANNELS 6 Xposition Yposition Zposition Zrotation Yrotation Xrotation
										JOINT LeftHandThumb2
										{
											OFFSET 0.000000 0.000000 3.350403
											CHANNELS 6 Xposition Yposition Zposition Zrotation Yrotation Xrotation
											JOINT LeftHandThumb3
											{
												OFFSET 0.000000 0.000000 3.756516
												CHANNELS 6 Xposition Yposition Zposition Zrotation Yrotation Xrotation
												JOINT LeftHandThumb4
												{
													OFFSET 0.000000 0.000000 3.100006
													CHANNELS 6 Xposition Yposition Zposition Zrotation Yrotation Xrotation
													End Site
													{
														OFFSET 0.000000 0.000000 0.100006
													}
												}
											}
										}
									}
									JOINT LeftHandIndex1
									{
										OFFSET 0.086761 -2.345276 10.030899
										CHANNELS 6 Xposition Yposition Zposition Zrotation Yrotation Xrotation
										JOINT LeftHandIndex2
										{
											OFFSET 0.000000 0.000000 4.061096
											CHANNELS 6 Xposition Yposition Zposition Zrotation Yrotation Xrotation
											JOINT LeftHandIndex3
											{
												OFFSET 0.000000 0.000000 3.248871
												CHANNELS 6 Xposition Yposition Zposition Zrotation Yrotation Xrotation
												JOINT LeftHandIndex4
												{
													OFFSET 0.000000 0.000000 2.639709
													CHANNELS 6 Xposition Yposition Zposition Zrotation Yrotation Xrotation
													End Site
													{
														OFFSET 0.000000 0.000000 0.100006
													}
												}
											}
										}
									}
									JOINT LeftHandMiddle1
									{
										OFFSET -0.104095 -0.006775 9.502945
										CHANNELS 6 Xposition Yposition Zposition Zrotation Yrotation Xrotation
										JOINT LeftHandMiddle2
										{
											OFFSET 0.000000 0.000000 4.568726
											CHANNELS 6 Xposition Yposition Zposition Zrotation Yrotation Xrotation
											JOINT LeftHandMiddle3
											{
												OFFSET 0.000000 0.000000 3.654984
												CHANNELS 6 Xposition Yposition Zposition Zrotation Yrotation Xrotation
												JOINT LeftHandMiddle4
												{
													OFFSET 0.000000 0.000000 2.741241
													CHANNELS 6 Xposition Yposition Zposition Zrotation Yrotation Xrotation
													End Site
													{
														OFFSET 0.000000 0.000000 0.100006
													}
												}
											}
										}
									}
									JOINT LeftHandRing1
									{
										OFFSET -0.086761 2.267456 8.921707
										CHANNELS 6 Xposition Yposition Zposition Zrotation Yrotation Xrotation
										JOINT LeftHandRing2
										{
											OFFSET 0.000000 0.000000 4.061096
											CHANNELS 6 Xposition Yposition Zposition Zrotation Yrotation Xrotation
											JOINT LeftHandRing3
											{
												OFFSET 0.000000 0.000000 3.654984
												CHANNELS 6 Xposition Yposition Zposition Zrotation Yrotation Xrotation
												JOINT LeftHandRing4
												{
													OFFSET 0.000000 0.000000 2.741241
													CHANNELS 6 Xposition Yposition Zposition Zrotation Yrotation Xrotation
													End Site
													{
														OFFSET 0.000000 0.000000 0.100006
													}
												}
											}
										}
									}
									JOINT LeftHandPinky1
									{
										OFFSET 0.173492 4.467224 7.976990
										CHANNELS 6 Xposition Yposition Zposition Zrotation Yrotation Xrotation
										JOINT LeftHandPinky2
										{
											OFFSET 0.000000 0.000000 3.350403
											CHANNELS 6 Xposition Yposition Zposition Zrotation Yrotation Xrotation
											JOINT LeftHandPinky3
											{
												OFFSET 0.000000 0.000000 2.842758
												CHANNELS 6 Xposition Yposition Zposition Zrotation Yrotation Xrotation
												JOINT LeftHandPinky4
												{
													OFFSET 0.000000 0.000000 2.639709
													CHANNELS 6 Xposition Yposition Zposition Zrotation Yrotation Xrotation
													End Site
													{
														OFFSET 0.000000 0.000000 0.100006
													}
												}
											}
										}
									}
									JOINT LeftForeArmEnd
									{
										OFFSET 0.000000 0.000000 0.000000
										CHANNELS 6 Xposition Yposition Zposition Zrotation Yrotation Xrotation
										End Site
										{
											OFFSET 0.000000 0.000000 0.100006
										}
									}
								}
								JOINT LeftArmEnd
								{
									OFFSET 0.000000 0.000000 0.000000
									CHANNELS 6 Xposition Yposition Zposition Zrotation Yrotation Xrotation
									End Site
									{
										OFFSET 0.000000 0.000000 0.100006
									}
								}
							}
						}
					}
				}
			}
		}
	}
	JOINT RightUpLeg
	{
		OFFSET -11.289948 0.000000 0.000000
		CHANNELS 6 Xposition Yposition Zposition Zrotation Yrotation Xrotation
		JOINT RightLeg
		{
			OFFSET 0.000000 0.000000 -38.200329
			CHANNELS 6 Xposition Yposition Zposition Zrotation Yrotation Xrotation
			JOINT RightFoot
			{
				OFFSET 0.000000 0.000000 -39.900856
				CHANNELS 6 Xposition Yposition Zposition Zrotation Yrotation Xrotation
				JOINT RightToeBase
				{
					OFFSET 0.000000 -15.261658 0.000002
					CHANNELS 6 Xposition Yposition Zposition Zrotation Yrotation Xrotation
					JOINT RightToeBaseEnd
					{
						OFFSET 0.000000 -7.370728 0.000000
						CHANNELS 6 Xposition Yposition Zposition Zrotation Yrotation Xrotation
						End Site
						{
							OFFSET 0.000000 0.000000 0.100000
						}
					}
				}
				JOINT RightLegEnd
				{
					OFFSET 0.000000 0.000000 0.000000
					CHANNELS 6 Xposition Yposition Zposition Zrotation Yrotation Xrotation
					End Site
					{
						OFFSET 0.000000 0.000000 0.100000
					}
				}
			}
			JOINT RightUpLegEnd
			{
				OFFSET 0.000000 0.000000 0.000000
				CHANNELS 6 Xposition Yposition Zposition Zrotation Yrotation Xrotation
				End Site
				{
					OFFSET 0.000000 0.000000 0.099998
				}
			}
		}
	}
	JOINT LeftUpLeg
	{
		OFFSET 11.315674 0.000000 0.000000
		CHANNELS 6 Xposition Yposition Zposition Zrotation Yrotation Xrotation
		JOINT LeftLeg
		{
			OFFSET 0.000000 0.000000 -38.200329
			CHANNELS 6 Xposition Yposition Zposition Zrotation Yrotation Xrotation
			JOINT LeftFoot
			{
				OFFSET 0.000000 0.000000 -39.900856
				CHANNELS 6 Xposition Yposition Zposition Zrotation Yrotation Xrotation
				JOINT LeftToeBase
				{
					OFFSET 0.000000 -15.261658 0.000002
					CHANNELS 6 Xposition Yposition Zposition Zrotation Yrotation Xrotation
					JOINT LeftToeBaseEnd
					{
						OFFSET 0.000000 -7.539978 0.000000
						CHANNELS 6 Xposition Yposition Zposition Zrotation Yrotation Xrotation
						End Site
						{
							OFFSET 0.000000 0.000000 0.100000
						}
					}
				}
				JOINT LeftLegEnd
				{
					OFFSET 0.000000 0.000000 0.000000
					CHANNELS 6 Xposition Yposition Zposition Zrotation Yrotation Xrotation
					End Site
					{
						OFFSET 0.000000 0.000000 0.100000
					}
				}
			}
			JOINT LeftUpLegEnd
			{
				OFFSET 0.000000 0.000000 0.000000
				CHANNELS 6 Xposition Yposition Zposition Zrotation Yrotation Xrotation
				End Site
				{
					OFFSET 0.000000 0.000000 0.099998
				}
			}
		}
	}
}
MOTION
Frames: 2
Frame Time: 0.016667
9.270752 0.036621 87.569946 30.572326 -3.658066 -9.952242 0.000002 2.080091 8.814233 0.443571 -0.059610 7.266368 -0.000007 0.000030 8.844154 0.073596 0.018679 2.724131 -0.000003 0.000004 11.682291 5.313129 3.503420 8.196462 0.000006 -0.000018 11.746685 2.066807 4.593245 4.940681 0.000031 -0.000017 17.658257 -15.966255 -18.882347 -2.186526 0.000007 0.000013 5.101489 -12.387528 -1.360638 -10.702283 -0.000008 0.000027 5.101526 -0.513940 -2.973206 -13.856213 -0.000001 -0.000000 11.655065 0.000000 -0.000000 -0.000001 -2.625373 -0.000018 11.175219 13.603673 -89.331723 2.045939 0.000027 0.000011 10.434708 -50.673293 -30.997437 60.797194 0.000000 0.000008 29.628407 20.197443 0.927955 70.010143 -0.000022 0.000035 22.857580 -12.179295 0.424733 -4.525195 -2.867310 -2.944244 3.959564 31.489388 -19.773191 47.805010 -0.000008 0.000000 3.350403 -18.261090 10.170137 -32.056612 -0.000019 -0.000015 3.756550 -12.069418 8.177615 -21.867733 0.000008 -0.000014 3.147333 0.000002 0.000001 0.000001 -0.086761 -2.345242 10.030899 162.967945 -147.022008 -166.158231 0.000010 0.000018 4.061100 -0.290576 -24.400634 3.655313 0.000000 0.000011 3.248878 -0.790588 -24.400632 3.655323 0.000001 -0.000015 2.639721 0.000001 0.000000 0.000002 0.104092 -0.006797 9.502975 168.047980 -143.523721 -170.415583 0.000020 -0.000018 4.568733 0.152770 -26.315995 1.485271 -0.000014 0.000021 3.654989 -0.347225 -26.316009 1.485264 0.000009 0.000052 2.741264 0.000001 0.000001 -0.000003 0.086787 2.267459 8.921711 174.756196 -128.974421 -172.099416 0.000023 -0.000021 4.061111 -0.182656 -35.811419 -2.529316 0.000007 -0.000009 3.654995 0.817354 -35.811437 -2.529313 -0.000002 0.000025 2.741240 -0.000003 -0.000001 -0.000003 -0.173515 4.467262 7.977006 8.972905 -62.512610 -2.688195 -0.000034 -0.000031 3.350380 1.971677 -42.388376 -10.219583 -0.000017 0.000011 2.842758 3.971673 -42.388342 -10.219600 -0.000009 0.000006 2.639722 -0.000001 -0.000002 -0.000002 -0.000000 -0.000014 0.000016 0.000002 0.000002 -0.000000 -0.000012 0.000014 -0.000007 -0.000002 0.000000 0.000001 2.625376 0.000009 11.175187 -6.697661 86.332608 -0.175189 -0.000015 0.000025 10.813625 44.709858 66.244529 34.457854 -0.000061 -0.000069 28.724749 -15.122946 1.995103 37.767135 0.644352 0.328865 25.716187 -32.160198 -10.946943 -13.347007 2.867264 -2.944321 3.959526 -31.522839 20.877824 46.232318 0.000008 -0.000015 3.350464 20.734081 -10.640856 -36.042570 -0.000046 -0.000008 3.756542 13.684893 -8.816190 -24.564111 -0.000030 -0.000001 3.100021 -0.000000 0.000002 -0.000000 0.086781 -2.345275 10.030910 -182.066315 137.638420 -188.377109 -0.000027 0.000007 4.061142 -0.782670 30.368315 -4.723698 -0.000053 -0.000021 3.248886 -1.282665 30.368513 -4.723695 -0.000061 -0.000010 2.639709 -0.000000 -0.000000 -0.000003 -0.104115 -0.006775 9.502909 -175.470497 137.544287 -181.036636 -0.000012 -0.000055 4.568759 0.027696 30.218150 -1.749188 -0.000027 -0.000078 3.655027 -0.472293 30.218167 -1.749177 -0.000033 -0.000008 2.741257 -0.000000 -0.000000 -0.000002 -0.086792 2.267427 8.921722 -162.124280 132.786459 -166.956270 -0.000002 0.000002 4.061100 -0.264374 34.252682 2.386970 -0.000057 -0.000029 3.655001 0.735618 34.252695 2.386962 -0.000017 0.000007 2.741260 -0.000001 0.000001 0.000000 0.173531 4.467248 7.976990 -149.321104 134.068841 -153.059676 -0.000042 -0.000017 3.350388 0.521240 35.303728 7.911759 -0.000029 -0.000013 2.842773 2.521248 35.303738 7.911762 -0.000034 0.000016 2.639702 -0.000003 -0.000004 0.000004 -0.000013 -0.000009 -0.000004 0.000001 -0.000001 0.000001 -0.000002 0.000011 0.000006 -0.000001 -0.000002 0.000001 -11.289904 -0.000030 -0.000023 -6.487153 12.067298 6.893596 0.000027 0.000088 -38.200314 -1.040285 0.461664 23.928405 0.000003 -0.000070 -39.900867 -18.416895 -8.424494 12.544362 0.000011 -15.261791 0.000030 1.470717 2.151115 -19.122194 -0.000002 -7.370666 -0.000000 -0.000000 -0.000000 -0.000001 -0.000001 -0.000001 0.000000 0.000000 -0.000001 -0.000003 0.000019 0.000061 -0.000001 0.000000 -0.000001 -0.000001 11.315693 -0.000003 -0.000017 -9.269875 5.785881 1.777964 -0.000008 0.000055 -38.200317 0.383645 -0.124103 18.402382 -0.000007 0.000017 -39.900867 -3.580844 -4.245054 15.395219 0.000033 -15.261698 0.000021 -0.918631 0.525821 -20.247278 0.000002 -7.539967 0.000000 -0.000002 -0.000000 0.000000 0.000002 0.000066 0.000000 -0.000001 0.000000 0.000001 0.000032 0.000052 -0.000013 0.000001 -0.000000 -0.000000 
9.334106 0.089172 87.349937 28.719511 -3.752563 -10.896883 0.000012 2.080161 8.814248 0.586589 0.162864 7.823317 -0.000003 -0.000023 8.844151 0.155586 0.221141 3.114882 -0.000014 0.000019 11.682287 5.301042 3.398052 8.797210 -0.000011 -0.000026 11.746675 2.100244 4.323829 5.293686 -0.000061 -0.000008 17.658272 -14.538073 -19.303547 -3.594119 0.000017 -0.000011 5.101520 -10.684945 -1.897850 -11.125856 0.000014 -0.000023 5.101479 -0.434155 -2.947003 -13.880621 0.000005 0.000001 11.655071 -0.000001 0.000002 0.000000 -2.625411 0.000034 11.175208 13.180448 -89.591912 2.723999 0.000031 0.000004 10.434715 -51.919328 -29.637970 62.471854 -0.000011 0.000008 29.628433 20.625595 0.761198 62.577681 -0.000005 0.000072 22.857580 -10.739996 -0.173232 -5.078342 -2.867310 -2.944260 3.959564 31.489180 -19.590781 48.067757 -0.000008 0.000000 3.350430 -17.852791 10.075342 -31.394992 -0.000011 -0.000015 3.756523 -11.803495 8.063935 -21.420599 0.000034 0.000012 3.147338 -0.000001 -0.000000 -0.000003 -0.086754 -2.345268 10.030914 163.516464 -148.413986 -168.447532 -0.000008 -0.000004 4.061094 -0.208641 -23.193362 3.452253 0.000017 0.000070 3.248873 -0.708638 -23.193280 3.452222 -0.000006 -0.000061 2.639704 0.000001 -0.000001 -0.000000 0.104080 -0.006779 9.502941 168.710098 -145.501922 -172.744445 -0.000010 -0.000022 4.568737 0.194819 -24.803443 1.387804 -0.000001 0.000004 3.654996 -0.305205 -24.803431 1.387827 -0.000004 0.000003 2.741248 -0.000000 0.000001 -0.000004 0.086765 2.267471 8.921692 175.563264 -131.940841 -174.241800 0.000011 0.000021 4.061083 -0.287018 -33.798733 -2.346515 0.000001 0.000009 3.654995 0.712988 -33.798703 -2.346509 -0.000014 0.000017 2.741263 -0.000001 -0.000000 -0.000001 -0.173485 4.467205 7.976974 8.673967 -59.582260 -2.872916 -0.000019 -0.000010 3.350372 1.537286 -40.521255 -9.563519 -0.000021 -0.000015 2.842758 3.537273 -40.521153 -9.563516 0.000008 -0.000026 2.639719 -0.000003 0.000001 -0.000001 -0.000005 -0.000014 0.000004 0.000001 0.000002 0.000001 -0.000009 0.000017 -0.000005 -0.000001 0.000001 -0.000000 2.625366 0.000013 11.175222 -7.061777 86.314364 -0.200482 0.000008 0.000021 10.813641 44.702229 65.393488 35.742359 -0.000057 0.000038 28.724747 -15.487184 1.956047 37.810742 0.644361 0.328800 25.716160 -31.774703 -10.366491 -13.662766 2.867210 -2.944366 3.959511 -31.513420 20.692695 46.493688 -0.000031 -0.000046 3.350502 20.319400 -10.574279 -35.376159 -0.000015 0.000015 3.756519 13.413426 -8.715103 -24.113221 -0.000023 0.000004 3.100003 -0.000000 0.000001 0.000001 0.086737 -2.345249 10.030930 -182.367895 139.767486 -188.301895 -0.000051 0.000008 4.061108 -0.645114 28.877128 -4.445427 -0.000036 0.000002 3.248905 -1.145117 28.877114 -4.445423 -0.000035 -0.000007 2.639745 -0.000000 -0.000000 -0.000002 -0.104122 -0.006756 9.502928 -176.007500 139.783441 -181.600892 -0.000034 -0.000038 4.568755 0.081310 28.639996 -1.640094 -0.000029 -0.000045 3.655005 -0.418690 28.640032 -1.640097 -0.000030 0.000004 2.741253 0.000000 -0.000000 -0.000001 -0.086761 2.267453 8.921753 -163.444391 135.377491 -168.951218 -0.000062 0.000008 4.061138 -0.359034 32.282589 2.214423 -0.000045 0.000020 3.655005 0.640964 32.282589 2.214425 0.000006 -0.000002 2.741254 0.000001 -0.000001 -0.000002 0.173531 4.467140 7.976974 -151.162045 136.418740 -156.461466 -0.000061 0.000002 3.350426 0.180806 33.197243 7.306982 -0.000061 -0.000030 2.842781 2.180812 33.197247 7.306990 -0.000026 -0.000007 2.639711 0.000002 -0.000000 -0.000002 -0.000015 -0.000005 0.000007 0.000000 -0.000001 -0.000001 -0.000008 -0.000023 -0.000013 0.000003 0.000001 0.000002 -11.289896 0.000121 -0.000019 -5.605249 12.140712 5.775821 0.000039 0.000091 -38.200310 -0.880432 0.451138 27.128671 -0.000031 -0.000061 -39.900856 -18.405577 -8.298318 12.001056 -0.000002 -15.261740 0.000052 1.333489 2.080579 -19.194426 -0.000000 -7.370666 0.000002 -0.000000 0.000001 0.000000 -0.000003 -0.000000 -0.000000 0.000000 -0.000000 0.000001 0.000041 0.000077 -0.000003 -0.000003 -0.000000 0.000000 11.315654 -0.000029 -0.000008 -8.352387 6.027624 2.175688 -0.000007 0.000000 -38.200294 0.338560 -0.122304 20.050637 -0.000013 0.000028 -39.900856 -2.411988 -4.261838 14.359177 0.000034 -15.261684 0.000037 -0.854141 0.447901 -20.157370 0.000010 -7.539971 -0.000002 -0.000001 0.000000 -0.000000 0.000007 0.000068 0.000002 -0.000001 0.000000 0.000002 -0.000009 -0.000002 0.000000 0.000000 -0.000000 -0.000001 
